<svg width="32" height="32" viewBox="0 0 32 32" fill="none" xmlns="http://www.w3.org/2000/svg">
<path d="M8.60938 26.2881C7.44922 26.2881 6.57194 25.9909 5.97754 25.3965C5.38314 24.8093 5.08594 23.9428 5.08594 22.7969V9.72369C5.08594 8.5707 5.38314 7.70058 5.97754 7.11334C6.57194 6.5261 7.44922 6.23248 8.60938 6.23248H23.3906C24.5579 6.23248 25.4352 6.5261 26.0225 7.11334C26.6169 7.70058 26.9141 8.5707 26.9141 9.72369V22.7969C26.9141 23.9428 26.6169 24.8093 26.0225 25.3965C25.4352 25.9909 24.5579 26.2881 23.3906 26.2881H8.60938ZM8.58789 24.1719H23.4014C23.8525 24.1719 24.1963 24.0574 24.4326 23.8282C24.6761 23.5919 24.7979 23.2409 24.7979 22.7755V12.8497C24.7979 12.3842 24.6761 12.0333 24.4326 11.7969C24.1963 11.5606 23.8525 11.4424 23.4014 11.4424H8.58789C8.13672 11.4424 7.79297 11.5606 7.55664 11.7969C7.32031 12.0333 7.20215 12.3842 7.20215 12.8497V22.7755C7.20215 23.2409 7.32031 23.5919 7.55664 23.8282C7.79297 24.0574 8.13672 24.1719 8.58789 24.1719ZM13.9375 15.1807C13.7441 15.1807 13.6081 15.1449 13.5293 15.0733C13.4577 14.9945 13.4219 14.862 13.4219 14.6758V14.0421C13.4219 13.8487 13.4577 13.7198 13.5293 13.6553C13.6081 13.5837 13.7441 13.5479 13.9375 13.5479H14.5713C14.7575 13.5479 14.89 13.5837 14.9688 13.6553C15.0475 13.7198 15.0869 13.8487 15.0869 14.0421V14.6758C15.0869 14.862 15.0475 14.9945 14.9688 15.0733C14.89 15.1449 14.7575 15.1807 14.5713 15.1807H13.9375ZM17.4395 15.1807C17.2533 15.1807 17.1208 15.1449 17.042 15.0733C16.9704 14.9945 16.9346 14.862 16.9346 14.6758V14.0421C16.9346 13.8487 16.9704 13.7198 17.042 13.6553C17.1208 13.5837 17.2533 13.5479 17.4395 13.5479H18.0732C18.2738 13.5479 18.4098 13.5837 18.4814 13.6553C18.5531 13.7198 18.5889 13.8487 18.5889 14.0421V14.6758C18.5889 14.862 18.5531 14.9945 18.4814 15.0733C18.4098 15.1449 18.2738 15.1807 18.0732 15.1807H17.4395ZM20.9629 15.1807C20.7695 15.1807 20.6335 15.1449 20.5547 15.0733C20.4831 14.9945 20.4473 14.862 20.4473 14.6758V14.0421C20.4473 13.8487 20.4831 13.7198 20.5547 13.6553C20.6335 13.5837 20.7695 13.5479 20.9629 13.5479H21.5859C21.7865 13.5479 21.9225 13.5837 21.9941 13.6553C22.0658 13.7198 22.1016 13.8487 22.1016 14.0421V14.6758C22.1016 14.862 22.0658 14.9945 21.9941 15.0733C21.9225 15.1449 21.7865 15.1807 21.5859 15.1807H20.9629ZM10.4248 18.629C10.2314 18.629 10.0954 18.5932 10.0166 18.5215C9.94499 18.4499 9.90918 18.321 9.90918 18.1348V17.501C9.90918 17.3077 9.94499 17.1752 10.0166 17.1036C10.0954 17.032 10.2314 16.9962 10.4248 16.9962H11.0586C11.2448 16.9962 11.3737 17.032 11.4453 17.1036C11.5241 17.1752 11.5635 17.3077 11.5635 17.501V18.1348C11.5635 18.321 11.5241 18.4499 11.4453 18.5215C11.3737 18.5932 11.2448 18.629 11.0586 18.629H10.4248ZM13.9375 18.629C13.7441 18.629 13.6081 18.5932 13.5293 18.5215C13.4577 18.4499 13.4219 18.321 13.4219 18.1348V17.501C13.4219 17.3077 13.4577 17.1752 13.5293 17.1036C13.6081 17.032 13.7441 16.9962 13.9375 16.9962H14.5713C14.7575 16.9962 14.89 17.032 14.9688 17.1036C15.0475 17.1752 15.0869 17.3077 15.0869 17.501V18.1348C15.0869 18.321 15.0475 18.4499 14.9688 18.5215C14.89 18.5932 14.7575 18.629 14.5713 18.629H13.9375ZM17.4395 18.629C17.2533 18.629 17.1208 18.5932 17.042 18.5215C16.9704 18.4499 16.9346 18.321 16.9346 18.1348V17.501C16.9346 17.3077 16.9704 17.1752 17.042 17.1036C17.1208 17.032 17.2533 16.9962 17.4395 16.9962H18.0732C18.2738 16.9962 18.4098 17.032 18.4814 17.1036C18.5531 17.1752 18.5889 17.3077 18.5889 17.501V18.1348C18.5889 18.321 18.5531 18.4499 18.4814 18.5215C18.4098 18.5932 18.2738 18.629 18.0732 18.629H17.4395ZM20.9629 18.629C20.7695 18.629 20.6335 18.5932 20.5547 18.5215C20.4831 18.4499 20.4473 18.321 20.4473 18.1348V17.501C20.4473 17.3077 20.4831 17.1752 20.5547 17.1036C20.6335 17.032 20.7695 16.9962 20.9629 16.9962H21.5859C21.7865 16.9962 21.9225 17.032 21.9941 17.1036C22.0658 17.1752 22.1016 17.3077 22.1016 17.501V18.1348C22.1016 18.321 22.0658 18.4499 21.9941 18.5215C21.9225 18.5932 21.7865 18.629 21.5859 18.629H20.9629ZM10.4248 22.088C10.2314 22.088 10.0954 22.0557 10.0166 21.9913C9.94499 21.9197 9.90918 21.7836 9.90918 21.5831V20.96C9.90918 20.7667 9.94499 20.6342 10.0166 20.5626C10.0954 20.4909 10.2314 20.4551 10.4248 20.4551H11.0586C11.2448 20.4551 11.3737 20.4909 11.4453 20.5626C11.5241 20.6342 11.5635 20.7667 11.5635 20.96V21.5831C11.5635 21.7836 11.5241 21.9197 11.4453 21.9913C11.3737 22.0557 11.2448 22.088 11.0586 22.088H10.4248ZM13.9375 22.088C13.7441 22.088 13.6081 22.0557 13.5293 21.9913C13.4577 21.9197 13.4219 21.7836 13.4219 21.5831V20.96C13.4219 20.7667 13.4577 20.6342 13.5293 20.5626C13.6081 20.4909 13.7441 20.4551 13.9375 20.4551H14.5713C14.7575 20.4551 14.89 20.4909 14.9688 20.5626C15.0475 20.6342 15.0869 20.7667 15.0869 20.96V21.5831C15.0869 21.7836 15.0475 21.9197 14.9688 21.9913C14.89 22.0557 14.7575 22.088 14.5713 22.088H13.9375ZM17.4395 22.088C17.2533 22.088 17.1208 22.0557 17.042 21.9913C16.9704 21.9197 16.9346 21.7836 16.9346 21.5831V20.96C16.9346 20.7667 16.9704 20.6342 17.042 20.5626C17.1208 20.4909 17.2533 20.4551 17.4395 20.4551H18.0732C18.2738 20.4551 18.4098 20.4909 18.4814 20.5626C18.5531 20.6342 18.5889 20.7667 18.5889 20.96V21.5831C18.5889 21.7836 18.5531 21.9197 18.4814 21.9913C18.4098 22.0557 18.2738 22.088 18.0732 22.088H17.4395Z" fill="#F0F9FF"/>
</svg>
