<svg width="26" height="25" viewBox="0 0 26 25" fill="none" xmlns="http://www.w3.org/2000/svg">
<path d="M5.54492 23.7715C5.29427 23.5853 5.1403 23.3347 5.08301 23.0196C5.03288 22.7116 5.07943 22.3464 5.22266 21.9239L7.43555 15.3604L1.7959 11.3106C1.43066 11.0528 1.17643 10.7842 1.0332 10.5049C0.889974 10.2185 0.86849 9.92483 0.96875 9.62405C1.06901 9.33043 1.25879 9.11201 1.53809 8.96878C1.81738 8.81839 2.18262 8.74677 2.63379 8.75393L9.54102 8.7969L11.6465 2.2012C11.7826 1.77151 11.9616 1.44566 12.1836 1.22366C12.4128 0.994493 12.6813 0.87991 12.9893 0.87991C13.3044 0.87991 13.5729 0.994493 13.7949 1.22366C14.0241 1.44566 14.2067 1.77151 14.3428 2.2012L16.4482 8.7969L23.3555 8.75393C23.8066 8.74677 24.1719 8.81839 24.4512 8.96878C24.7305 9.11201 24.9202 9.33043 25.0205 9.62405C25.1208 9.92483 25.0993 10.2185 24.9561 10.5049C24.8128 10.7842 24.5586 11.0528 24.1934 11.3106L18.5537 15.3604L20.7666 21.9239C20.9098 22.3464 20.9528 22.7116 20.8955 23.0196C20.8454 23.3347 20.695 23.5853 20.4443 23.7715C20.1937 23.972 19.9108 24.0436 19.5957 23.9864C19.2806 23.9291 18.944 23.7715 18.5859 23.5137L12.9893 19.3994L7.40332 23.5137C7.04525 23.7715 6.70866 23.9291 6.39355 23.9864C6.07845 24.0436 5.79557 23.972 5.54492 23.7715Z" fill="#F0F9FF"/>
</svg>
