<svg width="32" height="32" viewBox="0 0 32 32" fill="none" xmlns="http://www.w3.org/2000/svg">
<path d="M18.8145 24.7197V17.748C18.8145 17.4974 18.7393 17.2969 18.5889 17.1465C18.4385 16.9961 18.238 16.9209 17.9873 16.9209H14.0127C13.762 16.9209 13.5579 16.9961 13.4004 17.1465C13.25 17.2969 13.1748 17.4974 13.1748 17.748V24.7197H18.8145ZM6.36426 24.3545V16.1689L15.3447 8.63867C15.7816 8.26628 16.222 8.26628 16.666 8.63867L25.6465 16.1689V24.3545C25.6465 25.1279 25.4173 25.7331 24.959 26.1699C24.5007 26.6068 23.8776 26.8252 23.0898 26.8252H8.9209C8.12598 26.8252 7.49935 26.6068 7.04102 26.1699C6.58984 25.7331 6.36426 25.1279 6.36426 24.3545ZM2.88379 14.6973C2.88379 14.3678 3.02344 14.085 3.30273 13.8486L14.4961 4.44922C14.9616 4.0625 15.4665 3.86914 16.0107 3.86914C16.555 3.86914 17.0563 4.0625 17.5146 4.44922L28.6973 13.8486C28.9766 14.0778 29.1162 14.3714 29.1162 14.7295C29.1162 15.0374 29.0088 15.2809 28.7939 15.46C28.5863 15.639 28.3285 15.7285 28.0205 15.7285C27.8558 15.7285 27.6982 15.6891 27.5479 15.6104C27.3975 15.5316 27.2578 15.4421 27.1289 15.3418L16.4727 6.39355C16.3223 6.26465 16.1683 6.2002 16.0107 6.2002C15.8532 6.2002 15.6992 6.26465 15.5488 6.39355L4.88184 15.3418C4.74577 15.4421 4.60254 15.5316 4.45215 15.6104C4.30892 15.6891 4.15495 15.7285 3.99023 15.7285C3.64648 15.7285 3.37435 15.6283 3.17383 15.4277C2.98047 15.2201 2.88379 14.9766 2.88379 14.6973ZM22.6387 9.4873V6.85547C22.6387 6.61914 22.7103 6.42936 22.8535 6.28613C23.0039 6.13574 23.1973 6.06055 23.4336 6.06055H24.8838C25.1273 6.06055 25.3206 6.13574 25.4639 6.28613C25.6071 6.42936 25.6787 6.61914 25.6787 6.85547V12.0439L22.6387 9.4873Z" fill="#F0F9FF"/>
</svg>
