<svg width="32" height="32" viewBox="0 0 32 32" fill="none" xmlns="http://www.w3.org/2000/svg">
<path d="M11.8213 19.4883H20.2002C20.4222 19.4883 20.6048 19.4167 20.748 19.2734C20.8984 19.123 20.9736 18.9404 20.9736 18.7256C20.9736 18.5107 20.8984 18.3317 20.748 18.1885C20.6048 18.0381 20.4222 17.9629 20.2002 17.9629H11.8213C11.5993 17.9629 11.4131 18.0381 11.2627 18.1885C11.1123 18.3317 11.0371 18.5107 11.0371 18.7256C11.0371 18.9404 11.1123 19.123 11.2627 19.2734C11.4131 19.4167 11.5993 19.4883 11.8213 19.4883ZM11.8213 23.5166H20.2002C20.4222 23.5166 20.6048 23.445 20.748 23.3018C20.8984 23.1514 20.9736 22.9723 20.9736 22.7646C20.9736 22.5498 20.8984 22.3708 20.748 22.2275C20.6048 22.0771 20.4222 22.002 20.2002 22.002H11.8213C11.5993 22.002 11.4131 22.0771 11.2627 22.2275C11.1123 22.3708 11.0371 22.5498 11.0371 22.7646C11.0371 22.9723 11.1123 23.1514 11.2627 23.3018C11.4131 23.445 11.5993 23.5166 11.8213 23.5166ZM10.2744 27.8779C9.12142 27.8779 8.2513 27.5807 7.66406 26.9863C7.07682 26.3919 6.7832 25.5146 6.7832 24.3545V8.14453C6.7832 6.99154 7.07682 6.11784 7.66406 5.52344C8.2513 4.92188 9.12142 4.62109 10.2744 4.62109H15.1729V12.7422C15.1729 14.0742 15.8389 14.7402 17.1709 14.7402H25.2061V24.3545C25.2061 25.5075 24.9124 26.3812 24.3252 26.9756C23.738 27.5771 22.8678 27.8779 21.7148 27.8779H10.2744ZM17.3643 13.1719C16.9561 13.1719 16.752 12.9678 16.752 12.5596V4.72852C16.9954 4.75716 17.2389 4.85742 17.4824 5.0293C17.7331 5.20117 17.9909 5.42318 18.2559 5.69531L24.1211 11.6465C24.4004 11.9329 24.6224 12.1979 24.7871 12.4414C24.959 12.6849 25.0592 12.9284 25.0879 13.1719H17.3643Z" fill="#F0F9FF"/>
</svg>
